<?xml version="1.0" encoding="utf-8"?>
<!-- Generator: Adobe Illustrator 24.0.1, SVG Export Plug-In . SVG Version: 6.00 Build 0)  -->
<svg version="1.1" id="Camada_1" xmlns="http://www.w3.org/2000/svg" xmlns:xlink="http://www.w3.org/1999/xlink" x="0px" y="0px"
	 viewBox="0 0 573.6 570.8" style="enable-background:new 0 0 573.6 570.8;" xml:space="preserve">
<style type="text/css">
	.st0{fill:#FFFFFF;}
</style>
<g>
	<g>
		<path class="st0" d="M61.6,0.6l338.5-0.2c0,0-242.5,59.8-257,341.1c0,0-106.5-73.4-136-205.6S61.6,0.6,61.6,0.6z"/>
	</g>
	<g>
		<path class="st0" d="M573.5,61.3l0.2,338.5c0,0-59.8-242.5-341.1-257c0,0,73.4-106.5,205.6-136.1S573.5,61.3,573.5,61.3z"/>
	</g>
	<g>
		<path class="st0" d="M514.7,570.1l-338.5,0.2c0,0,242.5-59.8,257-341.1c0,0,106.5,73.4,136,205.6
			C598.7,567,514.7,570.1,514.7,570.1z"/>
	</g>
	<g>
		<path class="st0" d="M2.8,509.5L2.6,171c0,0,59.8,242.5,341.1,257c0,0-73.4,106.5-205.6,136S2.8,509.5,2.8,509.5z"/>
	</g>
</g>
</svg>
